<svg class="icon icon-menu" width="25" height="28" viewBox="0 0 25 28" fill="none" xmlns="http://www.w3.org/2000/svg">
    <mask id="a" style="mask-type: alpha;" maskUnits="userSpaceOnUse" x="0" y="0" width="43" height="20"><path fill="#D9D9D9" d="M0 0h43v20H0z"></path></mask>
    <path
        d="M1.612 19.287h.814l1.914 4.675h.066l1.913-4.675h.814v5.632h-.638v-4.278h-.056l-1.758 4.278h-.617l-1.759-4.278H2.25v4.278h-.638v-5.632ZM8.5 24.919v-5.632h3.398v.605H9.182v1.904h2.542v.605H9.182v1.911h2.762v.607H8.5Zm9.091-5.632v5.632h-.659l-3.069-4.421h-.054v4.421h-.683v-5.632h.661l3.08 4.432h.054v-4.432h.67Zm5.059 0h.683v3.73c0 .385-.091.727-.273 1.029a1.896 1.896 0 0 1-.762.713c-.327.173-.712.258-1.154.258-.44 0-.825-.085-1.154-.258a1.914 1.914 0 0 1-.764-.713 1.968 1.968 0 0 1-.27-1.029v-3.73h.682v3.675c0 .273.06.518.181.734.121.211.294.38.516.502.226.121.495.182.809.182.313 0 .583-.061.807-.182.227-.122.4-.291.519-.502.12-.216.18-.461.18-.734v-3.675Z"
        fill="#000"
    ></path>
    <g mask="url(#a)" transform="translate(-4.066 2.2) scale(.77417)">
        <path
            d="M6.27 19.34v-1.255h16.484v1.255H6.27Zm0-8.421V9.665h7.526v1.254H6.27Zm0-8.421V1.244h7.526v1.254H6.27Zm29.563 16.931-6.808-6.808a7.16 7.16 0 0 1-1.971 1.12 6.327 6.327 0 0 1-2.24.403c-1.851 0-3.419-.642-4.703-1.926-1.284-1.284-1.926-2.852-1.926-4.703 0-1.852.642-3.42 1.926-4.704C21.395 1.527 22.963.885 24.814.885c1.852 0 3.42.642 4.703 1.926 1.284 1.284 1.926 2.852 1.926 4.704a6.33 6.33 0 0 1-.403 2.24 7.159 7.159 0 0 1-1.12 1.97l6.809 6.808-.896.896Zm-11.019-6.54c1.493 0 2.762-.522 3.808-1.567 1.045-1.045 1.567-2.314 1.567-3.807 0-1.494-.522-2.763-1.567-3.808-1.046-1.045-2.315-1.567-3.808-1.567-1.493 0-2.762.522-3.807 1.567s-1.568 2.314-1.568 3.808c0 1.493.523 2.762 1.568 3.807s2.314 1.568 3.807 1.568Z"
            fill="#1C1B1F"
        ></path>
    </g>
</svg>
