<svg width="16" height="16" viewBox="0 0 16 16" fill="none" xmlns="http://www.w3.org/2000/svg">
<path d="M13.9977 8.0026L5.99923 8.0026M13.9977 4.0026L5.99923 4.0026M13.9977 12.0026L5.99923 12.0026M3.33308 8.0026C3.33308 8.37079 3.03466 8.66927 2.66654 8.66927C2.29842 8.66927 2 8.37079 2 8.0026C2 7.63441 2.29842 7.33594 2.66654 7.33594C3.03466 7.33594 3.33308 7.63441 3.33308 8.0026ZM3.33308 4.0026C3.33308 4.37079 3.03466 4.66927 2.66654 4.66927C2.29842 4.66927 2 4.37079 2 4.0026C2 3.63441 2.29842 3.33594 2.66654 3.33594C3.03466 3.33594 3.33308 3.63441 3.33308 4.0026ZM3.33308 12.0026C3.33308 12.3708 3.03466 12.6693 2.66654 12.6693C2.29842 12.6693 2 12.3708 2 12.0026C2 11.6344 2.29842 11.3359 2.66654 11.3359C3.03466 11.3359 3.33308 11.6344 3.33308 12.0026Z" stroke="#333F48" stroke-width="1.2" stroke-linecap="round" stroke-linejoin="round"/>
</svg>
